<svg width="564" height="410" viewBox="0 0 564 410" fill="none" xmlns="http://www.w3.org/2000/svg">
<path d="M3.98875 0V0.506784H4.49552V0H3.98875ZM19.1924 0V0.506784L19.6992 0H19.1924ZM34.3961 0V0.506784L34.9029 0H34.3961ZM49.5998 0V0.506784L50.1066 0H49.5998ZM79.7538 0L80.2606 0.506784V0H79.7538ZM94.9575 0L95.4642 0.506784V0H94.9575ZM110.161 0L110.668 0.506784V0H110.161ZM125.365 0V0.506784H125.872V0H125.365ZM140.569 0V0.506784H141.075V0H140.569ZM155.772 0V0.506784H156.279V0H155.772ZM170.976 0V0.506784L171.483 0H170.976ZM186.18 0V0.506784L186.686 0H186.18ZM231.537 0L232.044 0.506784V0H231.537ZM246.741 0L247.248 0.506784V0H246.741ZM261.945 0V0.506784H262.451V0H261.945ZM277.148 0V0.506784H277.655V0H277.148ZM292.352 0V0.506784H292.859V0H292.352ZM307.556 0V0.506784L308.062 0H307.556ZM322.759 0V0.506784L323.266 0H322.759ZM337.963 0V0.506784L338.47 0H337.963ZM368.117 0L368.624 0.506784V0H368.117ZM383.321 0L383.828 0.506784V0H383.321ZM398.524 0L399.031 0.506784V0H398.524ZM413.728 0V0.506784H414.235V0H413.728ZM428.932 0V0.506784H429.439V0H428.932ZM444.135 0V0.506784H444.642V0H444.135ZM459.339 0V0.506784L459.846 0H459.339ZM474.543 0V0.506784L475.05 0H474.543ZM489.747 0V0.506784L490.253 0H489.747ZM519.901 0L520.407 0.506784V0H519.901ZM535.104 0L535.611 0.506784V0H535.104ZM550.308 0L550.815 0.506784V0H550.308ZM201.383 30.4074C200.532 31.9587 198.318 32.7371 196.822 33.5948L186.18 39.7065C176.685 45.126 167.284 50.7076 157.799 56.1454C152.948 58.9267 146.737 61.4209 142.958 65.6391C136.004 73.3991 137.781 84.1098 137.781 93.7561V157.612C132.003 156.539 125.875 156.84 120.044 157.095C103.01 157.841 86.8886 161.977 71.3917 169.093C66.3859 171.391 61.5552 174.197 56.9482 177.21C54.6803 178.693 52.2354 181.254 49.5998 181.937C48.5748 183.956 45.7617 185.476 44.0251 186.908C40.728 189.626 37.7807 192.751 34.7217 195.727C26.907 203.333 20.3888 212.918 15.2163 222.481C0.400518 249.872 -4.25983 283.777 4.1876 313.956C6.56168 322.437 9.82477 330.581 13.5896 338.535C15.1722 341.88 18.8135 345.752 19.1924 349.431C21.7905 350.759 23.6717 355.224 25.4396 357.54C29.7027 363.125 34.3196 368.436 39.464 373.228C55.2242 387.909 74.3504 398.354 95.2109 403.698C113.811 408.462 133.218 407.205 152.225 407.205H236.605H391.176C408.07 407.205 424.956 407.179 441.855 407.205C451.332 407.221 461.047 407.809 470.489 406.909C504.124 403.706 533.465 384.43 550.412 355.26C570.131 321.317 566.196 277.143 543.428 245.793C538.593 239.138 532.773 232.915 526.415 227.69C524.079 225.769 521.626 223.978 519.14 222.257C518.162 221.579 516.48 220.9 515.854 219.863C515.104 218.624 515.342 215.57 515.339 214.119C515.336 210.58 514.967 206.982 514.473 203.476C512.925 192.491 509.795 181.552 504.955 171.548C483.191 126.568 429.606 100.023 380.787 113.774V86.4076C380.787 80.8063 381.207 74.7745 378.428 69.6836C375.557 64.4282 370.585 61.8146 365.583 58.9698C360.584 56.1254 355.627 53.2005 350.633 50.3544C329.619 38.3825 308.782 26.0888 287.791 14.0818C278.534 8.78642 268.31 0.0129276 257.13 0.782855C251.71 1.15627 247.004 4.6784 242.433 7.27725C233.197 12.5286 223.924 17.7474 214.813 23.2109C211.97 24.916 209.079 26.5586 206.198 28.198C204.672 29.0659 203.163 30.2239 201.383 30.4074ZM3.98875 15.2037V15.7105L4.49552 15.2037H3.98875ZM19.1924 15.2037V15.7105L19.6992 15.2037H19.1924ZM34.3961 15.2037V15.7105L34.9029 15.2037H34.3961ZM49.5998 15.2037V15.7105L50.1066 15.2037H49.5998ZM79.7538 15.2037L80.2606 15.7105V15.2037H79.7538ZM94.9575 15.2037L95.4642 15.7105V15.2037H94.9575ZM110.161 15.2037L110.668 15.7105V15.2037H110.161ZM125.365 15.2037L125.872 15.7105V15.2037H125.365ZM140.569 15.2037V15.7105L141.075 15.2037H140.569ZM155.772 15.2037V15.7105L156.279 15.2037H155.772ZM170.976 15.2037V15.7105L171.483 15.2037H170.976ZM186.18 15.2037V15.7105L186.686 15.2037H186.18ZM292.352 15.2037V15.7105L292.859 15.2037H292.352ZM307.556 15.2037V15.7105L308.062 15.2037H307.556ZM322.759 15.2037V15.7105L323.266 15.2037H322.759ZM337.963 15.2037V15.7105L338.47 15.2037H337.963ZM368.117 15.2037L368.624 15.7105V15.2037H368.117ZM383.321 15.2037L383.828 15.7105V15.2037H383.321ZM398.524 15.2037L399.031 15.7105V15.2037H398.524ZM413.728 15.2037L414.235 15.7105V15.2037H413.728ZM428.932 15.2037V15.7105H429.439V15.2037H428.932ZM444.135 15.2037V15.7105L444.642 15.2037H444.135ZM459.339 15.2037V15.7105L459.846 15.2037H459.339ZM474.543 15.2037V15.7105L475.05 15.2037H474.543ZM489.747 15.2037V15.7105L490.253 15.2037H489.747ZM519.901 15.2037L520.407 15.7105V15.2037H519.901ZM535.104 15.2037L535.611 15.7105V15.2037H535.104ZM550.308 15.2037L550.815 15.7105V15.2037H550.308ZM372.171 278.734L381.729 264.798L383.828 258.209C382.297 256.443 382.517 252.401 381.544 250.101C378.886 243.823 372.399 239.19 365.583 238.72C354.234 237.939 349.381 246.616 342.922 254.155C338.865 258.888 333.856 263.221 328.587 266.559C324.315 269.265 319.703 271.776 314.904 273.413C310.125 275.04 304.647 275.949 300.714 279.317C295.801 283.523 292.889 289.691 293.692 296.219C294.067 299.287 295.182 302.303 296.966 304.834C298.003 306.306 299.348 307.644 300.714 308.812C309.626 316.439 321.122 311.904 330.615 308.077C332.926 307.145 335.214 306.106 337.456 305.021C338.49 304.522 339.8 303.569 341.004 303.719C342.162 303.863 343.155 304.953 344.045 305.619C345.836 306.962 347.749 308.161 349.619 309.395C355.28 313.128 361.405 316.052 367.61 318.748C386.369 326.892 409.038 328.369 428.932 324.272C445.255 320.912 459.826 313.548 473.276 303.894C477.591 300.797 481.461 296.946 485.185 293.178C486.615 291.731 488.143 288.956 490.253 288.617C490.119 286.303 493.819 283.146 495.139 281.268C499.535 275.014 502.649 268.305 506.471 261.757C508.921 262.9 510.811 265.963 512.392 268.092C517.095 274.414 520.577 281.552 522.723 289.123C525.953 348.559 489.409 369.327 442.868 369.196H390.162H221.655H147.917C131.531 369.196 114.815 370.433 99.0118 365.226C85.5608 360.794 73.3018 353.4 63.293 343.34C30.0405 309.922 30.7085 254.431 63.3043 220.97C77.368 206.533 96.9721 197.318 117.001 195.41C124.023 194.742 130.798 195.575 137.78 195.874V222.734C130.226 224.199 122.81 226.322 115.734 229.36C112.183 230.885 108.653 232.39 105.875 235.173C96.7641 244.296 99.5195 260.824 111.68 265.948C120.074 269.483 126.17 265.725 133.979 262.945C140.225 260.723 146.859 259.271 153.49 258.98C161.761 258.617 169.931 259.763 177.816 262.271C184.032 264.248 189.054 267.537 195.807 266.782C210.067 265.185 216.557 247.709 208.356 236.671C205.532 232.87 201.578 230.855 197.327 229.031C190.669 226.173 183.259 223.666 176.042 222.734V128.471V101.358C176.042 98.2472 174.99 92.8626 176.195 90.002C176.607 89.0249 177.965 88.4918 178.829 87.9992C181.117 86.696 183.383 85.3573 185.671 84.0558C194.229 79.1876 202.749 74.2644 211.264 69.3227C222.974 62.5267 234.625 55.5707 246.486 49.0413C249.476 47.3957 252.387 45.5964 255.355 43.9085C256.434 43.295 257.876 42.0192 259.156 41.9794C261.013 41.9216 263.952 44.3393 265.49 45.3128C269.902 48.1037 274.61 50.6052 279.174 53.1445C293.909 61.3405 308.428 69.9815 323.011 78.4449C327.643 81.133 332.387 83.6601 336.948 86.4646C338.486 87.4103 340.949 88.2123 342.115 89.6029C343.222 90.9213 342.522 94.8783 342.522 96.5434V115.801V185.232C342.522 196.064 341.534 207.249 352.405 213.503C362.602 219.369 375.715 213.837 379.594 202.969C381.302 198.186 380.778 192.512 380.712 187.512C380.63 181.356 380.785 175.175 380.785 169.014V158.118C380.785 157.023 380.382 154.906 381.046 153.975C381.941 152.722 384.72 152.367 386.106 151.962C390.584 150.654 394.887 149.554 399.536 148.997C420.267 146.517 440.878 153.799 456.043 168.024C488.911 198.848 482.146 255.032 443.88 278.113C421.371 291.693 394.982 290.735 372.171 278.734ZM3.98714 45.3576V45.8645H4.49389L3.98714 45.3576ZM19.1908 45.3576V45.8645H19.6976L19.1908 45.3576ZM34.3945 45.3576V45.8645H34.9013L34.3945 45.3576ZM49.5982 45.3576V45.8645H50.105L49.5982 45.3576ZM80.0056 45.3576L79.7523 45.8645H80.2591L80.0056 45.3576ZM95.2096 45.3576L94.9564 45.8645H95.4631L95.2096 45.3576ZM110.414 45.3576L110.16 45.8645H110.667L110.414 45.3576ZM125.364 45.3576V45.8645H125.871V45.3576H125.364ZM140.568 45.3576V45.8645H141.075V45.3576H140.568ZM155.771 45.3576V45.8645H156.278L155.771 45.3576ZM170.975 45.3576V45.8645H171.482L170.975 45.3576ZM262.197 45.3576L261.944 45.8645H262.451L262.197 45.3576ZM368.37 45.3576L368.117 45.8645H368.624L368.37 45.3576ZM383.574 45.3576L383.321 45.8645H383.828L383.574 45.3576ZM398.778 45.3576L398.525 45.8645H399.032L398.778 45.3576ZM413.982 45.3576L413.729 45.8645H414.236L413.982 45.3576ZM428.932 45.3576V45.8645H429.439V45.3576H428.932ZM444.136 45.3576V45.8645H444.643L444.136 45.3576ZM459.34 45.3576V45.8645H459.846L459.34 45.3576ZM474.543 45.3576V45.8645H475.05L474.543 45.3576ZM489.747 45.3576V45.8645H490.254L489.747 45.3576ZM520.154 45.3576L519.901 45.8645H520.408L520.154 45.3576ZM535.358 45.3576L535.105 45.8645H535.612L535.358 45.3576ZM550.562 45.3576L550.309 45.8645H550.816L550.562 45.3576ZM3.98835 60.5613V61.0681H4.49511V60.5613H3.98835ZM19.192 60.5613V61.0681H19.6988L19.192 60.5613ZM34.3957 60.5613V61.0681H34.9025L34.3957 60.5613ZM49.5994 60.5613V61.0681H50.1062L49.5994 60.5613ZM80.0068 60.5613L79.7535 61.0681H80.2603L80.0068 60.5613ZM95.2108 60.5613L94.9576 61.0681H95.4643L95.2108 60.5613ZM110.161 60.5613V61.0681H110.668V60.5613H110.161ZM125.365 60.5613V61.0681H125.872V60.5613H125.365ZM140.569 60.5613V61.0681H141.076V60.5613H140.569ZM231.791 60.5613L231.538 61.0681H232.044L231.791 60.5613ZM246.995 60.5613L246.742 61.0681H247.248L246.995 60.5613ZM261.945 60.5613V61.0681H262.452V60.5613H261.945ZM277.149 60.5613V61.0681H277.656V60.5613H277.149ZM383.575 60.5613L383.322 61.0681H383.829L383.575 60.5613ZM398.526 60.5613V61.0681H399.032V60.5613H398.526ZM413.729 60.5613V61.0681H414.236V60.5613H413.729ZM428.933 60.5613V61.0681H429.44V60.5613H428.933ZM444.137 60.5613V61.0681H444.643V60.5613H444.137ZM459.34 60.5613V61.0681H459.847L459.34 60.5613ZM474.544 60.5613V61.0681H475.051L474.544 60.5613ZM489.748 60.5613V61.0681H490.254L489.748 60.5613ZM520.155 60.5613L519.902 61.0681H520.409L520.155 60.5613ZM535.359 60.5613L535.106 61.0681H535.613L535.359 60.5613ZM550.31 60.5613V61.0681H550.817V60.5613H550.31ZM3.98959 75.7651V76.2718H4.49635V75.7651H3.98959ZM19.1933 75.7651V76.2718H19.7001V75.7651H19.1933ZM34.3969 75.7651V76.2718H34.9037V75.7651H34.3969ZM49.6006 75.7651V76.2718H50.1074L49.6006 75.7651ZM80.008 75.7651L79.7548 76.2718H80.2616L80.008 75.7651ZM94.9586 75.7651V76.2718H95.4654V75.7651H94.9586ZM110.162 75.7651V76.2718H110.669V75.7651H110.162ZM125.366 75.7651V76.2718H125.873V75.7651H125.366ZM231.792 75.7651L231.539 76.2718H232.045L231.792 75.7651ZM307.557 75.7651V76.2718H308.064V75.7651H307.557ZM383.322 75.7651V76.2718H383.829V75.7651H383.322ZM398.526 75.7651V76.2718H399.033V75.7651H398.526ZM413.73 75.7651V76.2718H414.236V75.7651H413.73ZM428.933 75.7651V76.2718H429.44V75.7651H428.933ZM444.137 75.7651V76.2718H444.644V75.7651H444.137ZM459.341 75.7651V76.2718H459.847V75.7651H459.341ZM474.544 75.7651V76.2718H475.051V75.7651H474.544ZM489.748 75.7651V76.2718H490.255L489.748 75.7651ZM520.155 75.7651L519.902 76.2718H520.409L520.155 75.7651ZM535.106 75.7651V76.2718H535.613V75.7651H535.106ZM550.31 75.7651V76.2718H550.816V75.7651H550.31ZM3.9902 90.9687V91.4755H4.49695V90.9687H3.9902ZM19.1939 90.9687V91.4755H19.7007V90.9687H19.1939ZM34.3976 90.9687V91.4755H34.9044V90.9687H34.3976ZM49.6012 90.9687V91.4755L50.108 90.9687H49.6012ZM79.7552 90.9687V91.4755H80.262V90.9687H79.7552ZM94.9589 90.9687V91.4755H95.4657V90.9687H94.9589ZM110.163 90.9687V91.4755H110.669V90.9687H110.163ZM125.366 90.9687V91.4755H125.873V90.9687H125.366ZM186.181 90.9687V91.4755H186.688V90.9687H186.181ZM337.964 90.9687V91.4755H338.471V90.9687H337.964ZM383.322 90.9687V91.4755H383.829V90.9687H383.322ZM398.526 90.9687V91.4755H399.033V90.9687H398.526ZM413.73 90.9687V91.4755H414.236V90.9687H413.73ZM428.933 90.9687V91.4755H429.44V90.9687H428.933ZM444.137 90.9687V91.4755H444.644V90.9687H444.137ZM459.341 90.9687V91.4755H459.847V90.9687H459.341ZM474.544 90.9687V91.4755H475.051V90.9687H474.544ZM489.748 90.9687V91.4755L490.255 90.9687H489.748ZM519.902 90.9687V91.4755H520.409V90.9687H519.902ZM535.106 90.9687V91.4755H535.612V90.9687H535.106ZM550.309 90.9687V91.4755H550.816V90.9687H550.309ZM223.43 99.5841V118.842C223.43 120.862 222.667 124.783 223.583 126.587C224.222 127.847 228.296 127.204 229.511 127.204H245.475C246.622 127.204 250.016 127.775 250.789 126.798C251.815 125.504 251.05 121.227 251.05 119.602V99.5841H223.43ZM272.335 99.5841V119.602C272.335 121.227 271.57 125.504 272.596 126.798C273.369 127.775 276.762 127.204 277.91 127.204H293.874C295.179 127.204 298.879 127.839 299.695 126.617C300.731 125.066 299.956 120.935 299.956 119.096V99.5841H272.335ZM3.99057 106.172V106.679H4.49737V106.172H3.99057ZM19.1943 106.172V106.679H19.701V106.172H19.1943ZM34.3978 106.172V106.679L34.9046 106.172H34.3978ZM49.6015 106.172V106.679L50.1082 106.172H49.6015ZM79.7554 106.172L80.2622 106.679V106.172H79.7554ZM94.9591 106.172L95.4659 106.679V106.172H94.9591ZM110.163 106.172V106.679H110.67V106.172H110.163ZM125.367 106.172V106.679H125.873V106.172H125.367ZM186.181 106.172V106.679L186.688 106.172H186.181ZM383.322 106.172L383.829 106.679V106.172H383.322ZM398.526 106.172V106.679H399.033V106.172H398.526ZM413.73 106.172V106.679H414.237V106.172H413.73ZM428.933 106.172V106.679H429.44V106.172H428.933ZM444.137 106.172V106.679H444.644V106.172H444.137ZM459.341 106.172V106.679H459.848V106.172H459.341ZM474.545 106.172V106.679L475.051 106.172H474.545ZM489.748 106.172V106.679L490.255 106.172H489.748ZM519.902 106.172L520.409 106.679V106.172H519.902ZM535.106 106.172L535.613 106.679V106.172H535.106ZM550.31 106.172V106.679H550.816V106.172H550.31ZM3.99043 121.376V121.883H4.49718V121.376H3.99043ZM19.1941 121.376V121.883L19.7009 121.376H19.1941ZM34.3978 121.376V121.883L34.9046 121.376H34.3978ZM49.6015 121.376V121.883L50.1082 121.376H49.6015ZM79.7554 121.376L80.2622 121.883V121.376H79.7554ZM94.9591 121.376L95.4659 121.883V121.376H94.9591ZM110.163 121.376L110.67 121.883V121.376H110.163ZM125.367 121.376V121.883H125.873V121.376H125.367ZM186.181 121.376V121.883L186.688 121.376H186.181ZM459.341 121.376V121.883L459.848 121.376H459.341ZM474.545 121.376V121.883L475.051 121.376H474.545ZM489.748 121.376V121.883L490.255 121.376H489.748ZM519.902 121.376L520.409 121.883V121.376H519.902ZM535.106 121.376L535.613 121.883V121.376H535.106ZM550.31 121.376L550.816 121.883V121.376H550.31ZM3.99043 136.58V137.087L4.49718 136.58H3.99043ZM19.1941 136.58V137.087L19.7009 136.58H19.1941ZM34.3978 136.58V137.087L34.9046 136.58H34.3978ZM49.6015 136.58V137.087L50.1082 136.58H49.6015ZM79.7554 136.58L80.2622 137.087V136.58H79.7554ZM94.9591 136.58L95.4659 137.087V136.58H94.9591ZM110.163 136.58L110.67 137.087V136.58H110.163ZM125.367 136.58L125.873 137.087V136.58H125.367ZM186.181 136.58V137.087L186.688 136.58H186.181ZM489.748 136.58V137.087L490.255 136.58H489.748ZM519.902 136.58L520.409 137.087V136.58H519.902ZM535.106 136.58L535.613 137.087V136.58H535.106ZM550.31 136.58L550.816 137.087V136.58H550.31ZM223.43 148.236V168.254C223.43 169.879 222.666 174.156 223.691 175.45C224.584 176.577 229.162 175.856 230.525 175.856H251.05V148.236H223.43ZM272.335 148.236V175.856H292.86C294.224 175.856 298.803 176.577 299.694 175.45C300.721 174.156 299.956 169.878 299.956 168.254V148.236H272.335ZM3.99034 166.734V167.241H4.49711V166.734H3.99034ZM19.194 166.734V167.241H19.7008L19.194 166.734ZM34.3977 166.734V167.241H34.9045L34.3977 166.734ZM49.6014 166.734V167.241H50.1082L49.6014 166.734ZM186.181 166.734V167.241H186.688L186.181 166.734ZM383.576 166.734L383.322 167.241H383.829L383.576 166.734ZM444.137 166.734V167.241H444.644L444.137 166.734ZM520.156 166.734L519.903 167.241H520.409L520.156 166.734ZM535.36 166.734L535.107 167.241H535.613L535.36 166.734ZM550.564 166.734L550.311 167.241H550.817L550.564 166.734ZM3.99034 181.937V182.444H4.49711V181.937H3.99034ZM19.194 181.937V182.444H19.7008V181.937H19.194ZM34.3977 181.937V182.444H34.9045L34.3977 181.937ZM186.181 181.937V182.444H186.688L186.181 181.937ZM383.576 181.937L383.322 182.444H383.829L383.576 181.937ZM520.156 181.937L519.903 182.444H520.409L520.156 181.937ZM535.36 181.937L535.107 182.444H535.613L535.36 181.937ZM550.31 181.937V182.444H550.817V181.937H550.31ZM3.99034 197.141V197.648H4.49711V197.141H3.99034ZM19.194 197.141V197.648H19.7008V197.141H19.194ZM110.163 197.141V197.648H110.67V197.141H110.163ZM125.366 197.141V197.648H125.873V197.141H125.366ZM186.181 197.141V197.648H186.688V197.141H186.181ZM383.322 197.141V197.648H383.829V197.141H383.322ZM520.155 197.141L519.902 197.648H520.409L520.155 197.141ZM535.106 197.141V197.648H535.613V197.141H535.106ZM550.31 197.141V197.648H550.817V197.141H550.31ZM3.99034 212.345V212.852H4.49711V212.345H3.99034ZM19.194 212.345V212.852H19.7008V212.345H19.194ZM79.7554 212.345L80.2622 212.852V212.345H79.7554ZM94.959 212.345V212.852H95.4658V212.345H94.959ZM110.163 212.345V212.852H110.67V212.345H110.163ZM186.181 212.345V212.852L186.688 212.345H186.181ZM383.322 212.345V212.852H383.829V212.345H383.322ZM519.902 212.345L520.409 212.852V212.345H519.902ZM535.106 212.345V212.852H535.613V212.345H535.106ZM550.309 212.345V212.852H550.816V212.345H550.309ZM3.99034 227.548V228.055H4.49711V227.548H3.99034ZM79.7554 227.548L80.2622 228.055V227.548H79.7554ZM368.119 227.548L368.625 228.055V227.548H368.119ZM535.106 227.548L535.613 228.055V227.548H535.106ZM550.309 227.548V228.055H550.816V227.548H550.309ZM3.99034 242.752V243.259L4.49711 242.752H3.99034ZM49.6014 242.752V243.259L50.1082 242.752H49.6014ZM550.309 242.752L550.816 243.259V242.752H550.309ZM49.6014 272.906V273.413H50.1082L49.6014 272.906ZM125.62 272.906L125.367 273.413H125.873L125.62 272.906ZM140.57 272.906V273.413H141.077L140.57 272.906ZM383.576 272.906L383.323 273.413H383.83L383.576 272.906ZM49.6017 288.11V288.617H50.1085L49.6017 288.11ZM49.6017 303.314V303.82H50.1085L49.6017 303.314ZM474.545 303.314V303.82H475.052L474.545 303.314ZM3.99064 318.517V319.024H4.49741V318.517H3.99064ZM49.6017 318.517V319.024H50.1085L49.6017 318.517ZM322.761 318.517V319.024H323.268V318.517H322.761ZM459.341 318.517V319.024H459.848V318.517H459.341ZM3.99064 333.721V334.228H4.49741V333.721H3.99064ZM413.73 333.721V334.228H414.237V333.721H413.73ZM3.99064 348.925V349.431H4.49741V348.925H3.99064ZM79.7557 348.925L80.2625 349.431V348.925H79.7557ZM3.99064 364.128V364.635L4.49741 364.128H3.99064ZM19.1943 364.128V364.635L19.7011 364.128H19.1943ZM550.31 364.128L550.817 364.635V364.128H550.31ZM3.99064 394.282V394.789H4.49741L3.99064 394.282ZM19.1943 394.282V394.789H19.7011L19.1943 394.282ZM34.398 394.282V394.789H34.9048L34.398 394.282ZM49.6017 394.282V394.789H50.1085L49.6017 394.282ZM520.156 394.282L519.903 394.789H520.409L520.156 394.282ZM535.36 394.282L535.107 394.789H535.613L535.36 394.282ZM550.564 394.282L550.311 394.789H550.817L550.564 394.282ZM3.99064 409.486V409.993H4.49741V409.486H3.99064ZM19.1943 409.486V409.993H19.7011L19.1943 409.486ZM34.398 409.486V409.993H34.9048L34.398 409.486ZM49.6017 409.486V409.993H50.1085L49.6017 409.486ZM80.0091 409.486L79.7559 409.993H80.2626L80.0091 409.486ZM95.2131 409.486L94.9599 409.993H95.4666L95.2131 409.486ZM110.164 409.486V409.993H110.671V409.486H110.164ZM125.367 409.486V409.993H125.874V409.486H125.367ZM140.571 409.486V409.993H141.078V409.486H140.571ZM155.775 409.486V409.993H156.282V409.486H155.775ZM170.978 409.486V409.993H171.485L170.978 409.486ZM186.182 409.486V409.993H186.689L186.182 409.486ZM231.793 409.486L231.54 409.993H232.047L231.793 409.486ZM246.997 409.486L246.744 409.993H247.251L246.997 409.486ZM261.948 409.486V409.993H262.455V409.486H261.948ZM277.151 409.486V409.993H277.658V409.486H277.151ZM292.355 409.486V409.993H292.862V409.486H292.355ZM307.559 409.486V409.993H308.066V409.486H307.559ZM322.763 409.486V409.993H323.269L322.763 409.486ZM337.966 409.486V409.993H338.473L337.966 409.486ZM368.374 409.486L368.12 409.993H368.627L368.374 409.486ZM383.578 409.486L383.324 409.993H383.831L383.578 409.486ZM398.782 409.486L398.528 409.993H399.035L398.782 409.486ZM413.732 409.486V409.993H414.239V409.486H413.732ZM428.936 409.486V409.993H429.443V409.486H428.936ZM444.14 409.486V409.993H444.646V409.486H444.14ZM459.343 409.486V409.993H459.85L459.343 409.486ZM474.547 409.486V409.993H475.054L474.547 409.486ZM489.751 409.486V409.993H490.258L489.751 409.486ZM520.158 409.486L519.905 409.993H520.412L520.158 409.486ZM535.362 409.486L535.109 409.993H535.616L535.362 409.486ZM550.313 409.486V409.993H550.82V409.486H550.313Z" fill="white"/>
</svg>
