<svg width="128" height="94" viewBox="0 0 128 94" fill="none" xmlns="http://www.w3.org/2000/svg">
<path d="M0.906673 0V0.115196H1.02187V0H0.906673ZM4.36258 0V0.115196L4.47778 0H4.36258ZM7.81849 0V0.115196L7.93369 0H7.81849ZM11.2744 0V0.115196L11.3896 0H11.2744ZM18.1286 0L18.2438 0.115196V0H18.1286ZM21.5845 0L21.6997 0.115196V0H21.5845ZM25.0404 0L25.1556 0.115196V0H25.0404ZM28.4963 0V0.115196H28.6115V0H28.4963ZM31.9523 0V0.115196H32.0675V0H31.9523ZM35.4082 0V0.115196H35.5234V0H35.4082ZM38.8641 0V0.115196L38.9793 0H38.8641ZM42.32 0V0.115196L42.4352 0H42.32ZM52.6301 0L52.7453 0.115196V0H52.6301ZM56.086 0L56.2012 0.115196V0H56.086ZM59.5419 0V0.115196H59.6571V0H59.5419ZM62.9978 0V0.115196H63.113V0H62.9978ZM66.4538 0V0.115196H66.5689V0H66.4538ZM69.9097 0V0.115196L70.0249 0H69.9097ZM73.3656 0V0.115196L73.4808 0H73.3656ZM76.8215 0V0.115196L76.9367 0H76.8215ZM83.6757 0L83.7909 0.115196V0H83.6757ZM87.1316 0L87.2468 0.115196V0H87.1316ZM90.5875 0L90.7027 0.115196V0H90.5875ZM94.0434 0V0.115196H94.1586V0H94.0434ZM97.4993 0V0.115196H97.6145V0H97.4993ZM100.955 0V0.115196H101.07V0H100.955ZM104.411 0V0.115196L104.526 0H104.411ZM107.867 0V0.115196L107.982 0H107.867ZM111.323 0V0.115196L111.438 0H111.323ZM118.177 0L118.292 0.115196V0H118.177ZM121.633 0L121.748 0.115196V0H121.633ZM125.089 0L125.204 0.115196V0H125.089ZM45.7759 6.91182C45.5825 7.26444 45.0791 7.44138 44.7391 7.63635L42.32 9.02557C40.1618 10.2575 38.025 11.5262 35.8689 12.7623C34.7661 13.3945 33.3545 13.9614 32.4953 14.9203C30.9147 16.6842 31.3187 19.1188 31.3187 21.3114V35.8263C30.0051 35.5824 28.6122 35.6508 27.2868 35.7088C23.415 35.8783 19.7504 36.8185 16.2279 38.436C15.09 38.9585 13.992 39.5963 12.9448 40.2812C12.4292 40.6183 11.8735 41.2003 11.2744 41.3557C11.0414 41.8145 10.402 42.1601 10.0072 42.4855C9.25776 43.1034 8.58783 43.8136 7.8925 44.4903C6.11616 46.219 4.63452 48.3978 3.45878 50.5715C0.0910407 56.7977 -0.96829 64.5045 0.951873 71.3645C1.49152 73.2924 2.23324 75.1436 3.08901 76.9516C3.44874 77.7119 4.27645 78.592 4.36258 79.4283C4.95314 79.7301 5.38074 80.745 5.78261 81.2715C6.75165 82.5409 7.80109 83.7482 8.97046 84.8374C12.5529 88.1746 16.9004 90.5489 21.6421 91.7636C25.8701 92.8465 30.2814 92.5608 34.6018 92.5608H53.7821H88.9172C92.7572 92.5608 96.5956 92.5548 100.437 92.5608C102.591 92.5642 104.799 92.6979 106.945 92.4934C114.591 91.7654 121.26 87.3839 125.113 80.7531C129.595 73.0378 128.7 62.9966 123.525 55.8706C122.426 54.3577 121.103 52.9433 119.658 51.7555C119.127 51.3188 118.569 50.9118 118.004 50.5206C117.782 50.3666 117.4 50.2121 117.257 49.9766C117.087 49.6949 117.141 49.0006 117.14 48.6708C117.14 47.8665 117.056 47.0484 116.943 46.2516C116.591 43.7547 115.88 41.2682 114.78 38.9942C109.833 28.7699 97.6525 22.7359 86.5556 25.8617V19.6411C86.5556 18.3679 86.6512 16.9968 86.0194 15.8396C85.3668 14.645 84.2367 14.0509 83.0997 13.4043C81.9633 12.7577 80.8367 12.0929 79.7014 11.4459C74.9248 8.72462 70.1884 5.93016 65.417 3.20089C63.3129 1.99722 60.9888 0.00293854 58.4476 0.177949C57.2155 0.262829 56.1458 1.06344 55.1068 1.65417C53.0074 2.84785 50.8996 4.03412 48.8286 5.27602C48.1823 5.6636 47.5253 6.03695 46.8703 6.40962C46.5235 6.60689 46.1805 6.87011 45.7759 6.91182ZM0.906673 3.4559V3.57111L1.02187 3.4559H0.906673ZM4.36258 3.4559V3.57111L4.47778 3.4559H4.36258ZM7.81849 3.4559V3.57111L7.93369 3.4559H7.81849ZM11.2744 3.4559V3.57111L11.3896 3.4559H11.2744ZM18.1286 3.4559L18.2438 3.57111V3.4559H18.1286ZM21.5845 3.4559L21.6997 3.57111V3.4559H21.5845ZM25.0404 3.4559L25.1556 3.57111V3.4559H25.0404ZM28.4963 3.4559L28.6115 3.57111V3.4559H28.4963ZM31.9523 3.4559V3.57111L32.0675 3.4559H31.9523ZM35.4082 3.4559V3.57111L35.5234 3.4559H35.4082ZM38.8641 3.4559V3.57111L38.9793 3.4559H38.8641ZM42.32 3.4559V3.57111L42.4352 3.4559H42.32ZM66.4538 3.4559V3.57111L66.5689 3.4559H66.4538ZM69.9097 3.4559V3.57111L70.0249 3.4559H69.9097ZM73.3656 3.4559V3.57111L73.4808 3.4559H73.3656ZM76.8215 3.4559V3.57111L76.9367 3.4559H76.8215ZM83.6757 3.4559L83.7909 3.57111V3.4559H83.6757ZM87.1316 3.4559L87.2468 3.57111V3.4559H87.1316ZM90.5875 3.4559L90.7027 3.57111V3.4559H90.5875ZM94.0434 3.4559L94.1586 3.57111V3.4559H94.0434ZM97.4993 3.4559V3.57111H97.6145V3.4559H97.4993ZM100.955 3.4559V3.57111L101.07 3.4559H100.955ZM104.411 3.4559V3.57111L104.526 3.4559H104.411ZM107.867 3.4559V3.57111L107.982 3.4559H107.867ZM111.323 3.4559V3.57111L111.438 3.4559H111.323ZM118.177 3.4559L118.292 3.57111V3.4559H118.177ZM121.633 3.4559L121.748 3.57111V3.4559H121.633ZM125.089 3.4559L125.204 3.57111V3.4559H125.089ZM84.5973 63.3583L86.7699 60.1904L87.2468 58.6929C86.8989 58.2914 86.949 57.3727 86.7278 56.8497C86.1236 55.4226 84.6491 54.3696 83.0997 54.2629C80.5199 54.0853 79.4169 56.0577 77.9487 57.7713C77.0265 58.8472 75.8878 59.8322 74.6903 60.5907C73.7192 61.2059 72.6709 61.7767 71.58 62.1488C70.4937 62.5186 69.2484 62.7253 68.3545 63.4908C67.2377 64.4469 66.5759 65.8489 66.7584 67.3326C66.8437 68.0302 67.0971 68.7156 67.5026 69.291C67.7382 69.6256 68.044 69.9297 68.3545 70.1953C70.3802 71.929 72.9935 70.898 75.1511 70.0283C75.6764 69.8163 76.1965 69.5801 76.7063 69.3336C76.9413 69.2201 77.2391 69.0036 77.5127 69.0375C77.7759 69.0704 78.0017 69.3181 78.2038 69.4695C78.6111 69.7748 79.0459 70.0472 79.471 70.3278C80.7578 71.1762 82.1499 71.8409 83.5605 72.4537C87.8245 74.3049 92.9773 74.6407 97.4993 73.7094C101.21 72.9456 104.522 71.2718 107.579 69.0773C108.56 68.3734 109.439 67.4979 110.286 66.6414C110.611 66.3126 110.958 65.6819 111.438 65.6047C111.408 65.0788 112.249 64.3611 112.549 63.9343C113.548 62.5128 114.256 60.9876 115.124 59.4992C115.681 59.759 116.111 60.4554 116.471 60.9392C117.54 62.3763 118.331 63.9988 118.819 65.7199C119.553 79.23 111.246 83.9507 100.667 83.921H88.6868H50.3838H33.6226C29.8979 83.921 26.0984 84.2021 22.5061 83.0184C19.4486 82.011 16.662 80.3303 14.387 78.0437C6.82843 70.4476 6.98026 57.8341 14.3895 50.2281C17.5863 46.9466 22.0425 44.8518 26.5952 44.4182C28.1913 44.2662 29.7313 44.4555 31.3183 44.5236V50.6291C29.6014 50.9621 27.9156 51.4445 26.3072 52.1353C25.5001 52.482 24.6977 52.824 24.0661 53.4565C21.9952 55.5302 22.6215 59.2873 25.3857 60.4519C27.2936 61.2554 28.6793 60.4012 30.4543 59.7694C31.8741 59.2642 33.3821 58.9342 34.8894 58.868C36.7696 58.7856 38.6266 59.0459 40.4189 59.6162C41.8317 60.0654 42.9733 60.8131 44.5084 60.6414C47.7498 60.2785 49.2249 56.3061 47.3608 53.797C46.7189 52.9331 45.8202 52.4751 44.854 52.0604C43.3404 51.4107 41.656 50.8409 40.0157 50.6291V29.2024V23.0394C40.0157 22.3323 39.7766 21.1083 40.0504 20.4581C40.144 20.236 40.4527 20.1148 40.6492 20.0029C41.1691 19.7066 41.6844 19.4023 42.2044 19.1065C44.1496 17.9999 46.0864 16.8808 48.0219 15.7576C50.6835 14.2128 53.3319 12.6316 56.028 11.1474C56.7077 10.7734 57.3695 10.3644 58.044 9.98073C58.2894 9.84128 58.6171 9.55127 58.908 9.54222C59.3302 9.52908 59.9983 10.0786 60.3479 10.2999C61.3507 10.9343 62.4209 11.5029 63.4582 12.0801C66.8076 13.9432 70.108 15.9073 73.4228 17.8311C74.4757 18.4421 75.5539 19.0165 76.5907 19.654C76.9403 19.869 77.5002 20.0513 77.7651 20.3674C78.0168 20.6671 77.8579 21.5665 77.8579 21.945V26.3225V42.1045C77.8579 44.5668 77.6332 47.1093 80.1042 48.5309C82.422 49.8643 85.4027 48.6067 86.2845 46.1364C86.6727 45.0492 86.5535 43.7594 86.5385 42.6229C86.5201 41.2236 86.5553 39.8185 86.5553 38.4182V35.9415C86.5553 35.6925 86.4637 35.2112 86.6146 34.9997C86.8179 34.7148 87.4497 34.6341 87.7648 34.542C88.7826 34.2448 89.7606 33.9947 90.8175 33.8682C95.5297 33.3044 100.215 34.9597 103.662 38.193C111.133 45.1997 109.595 57.9706 100.897 63.2172C95.7808 66.3039 89.7823 66.0862 84.5973 63.3583ZM0.906306 10.3101V10.4253H1.02149L0.906306 10.3101ZM4.36221 10.3101V10.4253H4.47741L4.36221 10.3101ZM7.81812 10.3101V10.4253H7.93332L7.81812 10.3101ZM11.274 10.3101V10.4253H11.3892L11.274 10.3101ZM18.1858 10.3101L18.1283 10.4253H18.2435L18.1858 10.3101ZM21.6418 10.3101L21.5843 10.4253H21.6995L21.6418 10.3101ZM25.0978 10.3101L25.0403 10.4253H25.1554L25.0978 10.3101ZM28.4962 10.3101V10.4253H28.6114V10.3101H28.4962ZM31.9521 10.3101V10.4253H32.0673V10.3101H31.9521ZM35.408 10.3101V10.4253H35.5232L35.408 10.3101ZM38.8639 10.3101V10.4253H38.9791L38.8639 10.3101ZM59.5994 10.3101L59.5418 10.4253H59.657L59.5994 10.3101ZM83.7332 10.3101L83.6756 10.4253H83.7908L83.7332 10.3101ZM87.1892 10.3101L87.1316 10.4253H87.2468L87.1892 10.3101ZM90.6452 10.3101L90.5876 10.4253H90.7028L90.6452 10.3101ZM94.1012 10.3101L94.0436 10.4253H94.1588L94.1012 10.3101ZM97.4995 10.3101V10.4253H97.6147V10.3101H97.4995ZM100.955 10.3101V10.4253H101.071L100.955 10.3101ZM104.411 10.3101V10.4253H104.526L104.411 10.3101ZM107.867 10.3101V10.4253H107.982L107.867 10.3101ZM111.323 10.3101V10.4253H111.438L111.323 10.3101ZM118.235 10.3101L118.177 10.4253H118.293L118.235 10.3101ZM121.691 10.3101L121.633 10.4253H121.749L121.691 10.3101ZM125.147 10.3101L125.089 10.4253H125.205L125.147 10.3101ZM0.906581 13.766V13.8812H1.02177V13.766H0.906581ZM4.36248 13.766V13.8812H4.47768L4.36248 13.766ZM7.81839 13.766V13.8812H7.93359L7.81839 13.766ZM11.2743 13.766V13.8812H11.3895L11.2743 13.766ZM18.1861 13.766L18.1286 13.8812H18.2438L18.1861 13.766ZM21.6421 13.766L21.5845 13.8812H21.6997L21.6421 13.766ZM25.0405 13.766V13.8812H25.1557V13.766H25.0405ZM28.4964 13.766V13.8812H28.6116V13.766H28.4964ZM31.9523 13.766V13.8812H32.0675V13.766H31.9523ZM52.6878 13.766L52.6302 13.8812H52.7454L52.6878 13.766ZM56.1437 13.766L56.0862 13.8812H56.2014L56.1437 13.766ZM59.5421 13.766V13.8812H59.6573V13.766H59.5421ZM62.998 13.766V13.8812H63.1132V13.766H62.998ZM87.1894 13.766L87.1318 13.8812H87.247L87.1894 13.766ZM90.5878 13.766V13.8812H90.703V13.766H90.5878ZM94.0437 13.766V13.8812H94.1589V13.766H94.0437ZM97.4996 13.766V13.8812H97.6148V13.766H97.4996ZM100.955 13.766V13.8812H101.071V13.766H100.955ZM104.411 13.766V13.8812H104.527L104.411 13.766ZM107.867 13.766V13.8812H107.983L107.867 13.766ZM111.323 13.766V13.8812H111.438L111.323 13.766ZM118.235 13.766L118.177 13.8812H118.293L118.235 13.766ZM121.691 13.766L121.633 13.8812H121.749L121.691 13.766ZM125.089 13.766V13.8812H125.205V13.766H125.089ZM0.906863 17.222V17.3371H1.02205V17.222H0.906863ZM4.36277 17.222V17.3371H4.47797V17.222H4.36277ZM7.81868 17.222V17.3371H7.93388V17.222H7.81868ZM11.2746 17.222V17.3371H11.3898L11.2746 17.222ZM18.1864 17.222L18.1288 17.3371H18.244L18.1864 17.222ZM21.5848 17.222V17.3371H21.7V17.222H21.5848ZM25.0407 17.222V17.3371H25.1559V17.222H25.0407ZM28.4966 17.222V17.3371H28.6118V17.222H28.4966ZM52.688 17.222L52.6304 17.3371H52.7456L52.688 17.222ZM69.91 17.222V17.3371H70.0252V17.222H69.91ZM87.132 17.222V17.3371H87.2471V17.222H87.132ZM90.5878 17.222V17.3371H90.703V17.222H90.5878ZM94.0438 17.222V17.3371H94.159V17.222H94.0438ZM97.4997 17.222V17.3371H97.6149V17.222H97.4997ZM100.956 17.222V17.3371H101.071V17.222H100.956ZM104.411 17.222V17.3371H104.527V17.222H104.411ZM107.867 17.222V17.3371H107.983V17.222H107.867ZM111.323 17.222V17.3371H111.438L111.323 17.222ZM118.235 17.222L118.178 17.3371H118.293L118.235 17.222ZM121.633 17.222V17.3371H121.749V17.222H121.633ZM125.089 17.222V17.3371H125.205V17.222H125.089ZM0.907001 20.6779V20.7931H1.02219V20.6779H0.907001ZM4.36291 20.6779V20.7931H4.47811V20.6779H4.36291ZM7.81882 20.6779V20.7931H7.93401V20.6779H7.81882ZM11.2747 20.6779V20.7931L11.3899 20.6779H11.2747ZM18.1289 20.6779V20.7931H18.2441V20.6779H18.1289ZM21.5848 20.6779V20.7931H21.7V20.6779H21.5848ZM25.0408 20.6779V20.7931H25.156V20.6779H25.0408ZM28.4967 20.6779V20.7931H28.6119V20.6779H28.4967ZM42.3203 20.6779V20.7931H42.4355V20.6779H42.3203ZM76.8218 20.6779V20.7931H76.937V20.6779H76.8218ZM87.1319 20.6779V20.7931H87.2471V20.6779H87.1319ZM90.5878 20.6779V20.7931H90.703V20.6779H90.5878ZM94.0437 20.6779V20.7931H94.1589V20.6779H94.0437ZM97.4997 20.6779V20.7931H97.6149V20.6779H97.4997ZM100.956 20.6779V20.7931H101.071V20.6779H100.956ZM104.411 20.6779V20.7931H104.527V20.6779H104.411ZM107.867 20.6779V20.7931H107.983V20.6779H107.867ZM111.323 20.6779V20.7931L111.438 20.6779H111.323ZM118.178 20.6779V20.7931H118.293V20.6779H118.178ZM121.633 20.6779V20.7931H121.749V20.6779H121.633ZM125.089 20.6779V20.7931H125.205V20.6779H125.089ZM50.7873 22.6362V27.0137C50.7873 27.4727 50.6139 28.3641 50.822 28.7742C50.9673 29.0605 51.8933 28.9144 52.1696 28.9144H55.7983C56.059 28.9144 56.8305 29.0443 57.0062 28.8221C57.2394 28.528 57.0655 27.5557 57.0655 27.1865V22.6362H50.7873ZM61.9038 22.6362V27.1865C61.9038 27.5557 61.7299 28.528 61.9632 28.8221C62.1388 29.0443 62.9101 28.9144 63.171 28.9144H66.7997C67.0964 28.9144 67.9373 29.0588 68.1228 28.7809C68.3583 28.4284 68.1821 27.4893 68.1821 27.0713V22.6362H61.9038ZM0.907086 24.1338V24.249H1.02228V24.1338H0.907086ZM4.36299 24.1338V24.249H4.47819V24.1338H4.36299ZM7.81887 24.1338V24.249L7.93406 24.1338H7.81887ZM11.2748 24.1338V24.249L11.39 24.1338H11.2748ZM18.129 24.1338L18.2442 24.249V24.1338H18.129ZM21.5849 24.1338L21.7001 24.249V24.1338H21.5849ZM25.0408 24.1338V24.249H25.156V24.1338H25.0408ZM28.4967 24.1338V24.249H28.6119V24.1338H28.4967ZM42.3204 24.1338V24.249L42.4356 24.1338H42.3204ZM87.132 24.1338L87.2472 24.249V24.1338H87.132ZM90.5879 24.1338V24.249H90.7031V24.1338H90.5879ZM94.0438 24.1338V24.249H94.159V24.1338H94.0438ZM97.4997 24.1338V24.249H97.6149V24.1338H97.4997ZM100.956 24.1338V24.249H101.071V24.1338H100.956ZM104.412 24.1338V24.249H104.527V24.1338H104.412ZM107.867 24.1338V24.249L107.983 24.1338H107.867ZM111.323 24.1338V24.249L111.439 24.1338H111.323ZM118.178 24.1338L118.293 24.249V24.1338H118.178ZM121.633 24.1338L121.749 24.249V24.1338H121.633ZM125.089 24.1338V24.249H125.205V24.1338H125.089ZM0.907053 27.5897V27.7049H1.02224V27.5897H0.907053ZM4.36296 27.5897V27.7049L4.47816 27.5897H4.36296ZM7.81887 27.5897V27.7049L7.93406 27.5897H7.81887ZM11.2748 27.5897V27.7049L11.39 27.5897H11.2748ZM18.129 27.5897L18.2442 27.7049V27.5897H18.129ZM21.5849 27.5897L21.7001 27.7049V27.5897H21.5849ZM25.0408 27.5897L25.156 27.7049V27.5897H25.0408ZM28.4967 27.5897V27.7049H28.6119V27.5897H28.4967ZM42.3204 27.5897V27.7049L42.4356 27.5897H42.3204ZM104.412 27.5897V27.7049L104.527 27.5897H104.412ZM107.867 27.5897V27.7049L107.983 27.5897H107.867ZM111.323 27.5897V27.7049L111.439 27.5897H111.323ZM118.178 27.5897L118.293 27.7049V27.5897H118.178ZM121.633 27.5897L121.749 27.7049V27.5897H121.633ZM125.089 27.5897L125.205 27.7049V27.5897H125.089ZM0.907053 31.0456V31.1608L1.02224 31.0456H0.907053ZM4.36296 31.0456V31.1608L4.47816 31.0456H4.36296ZM7.81887 31.0456V31.1608L7.93406 31.0456H7.81887ZM11.2748 31.0456V31.1608L11.39 31.0456H11.2748ZM18.129 31.0456L18.2442 31.1608V31.0456H18.129ZM21.5849 31.0456L21.7001 31.1608V31.0456H21.5849ZM25.0408 31.0456L25.156 31.1608V31.0456H25.0408ZM28.4967 31.0456L28.6119 31.1608V31.0456H28.4967ZM42.3204 31.0456V31.1608L42.4356 31.0456H42.3204ZM111.323 31.0456V31.1608L111.439 31.0456H111.323ZM118.178 31.0456L118.293 31.1608V31.0456H118.178ZM121.633 31.0456L121.749 31.1608V31.0456H121.633ZM125.089 31.0456L125.205 31.1608V31.0456H125.089ZM50.7873 33.6951V38.2454C50.7873 38.6147 50.6136 39.5869 50.8465 39.881C51.0495 40.1373 52.0902 39.9734 52.4001 39.9734H57.0656V33.6951H50.7873ZM61.9038 33.6951V39.9734H66.5693C66.8792 39.9734 67.92 40.1373 68.1227 39.881C68.356 39.5869 68.1821 38.6146 68.1821 38.2454V33.6951H61.9038ZM0.907033 37.8998V38.015H1.02223V37.8998H0.907033ZM4.36294 37.8998V38.015H4.47814L4.36294 37.8998ZM7.81885 37.8998V38.015H7.93405L7.81885 37.8998ZM11.2748 37.8998V38.015H11.39L11.2748 37.8998ZM42.3203 37.8998V38.015H42.4355L42.3203 37.8998ZM87.1896 37.8998L87.132 38.015H87.2472L87.1896 37.8998ZM100.956 37.8998V38.015H101.071L100.956 37.8998ZM118.235 37.8998L118.178 38.015H118.293L118.235 37.8998ZM121.691 37.8998L121.634 38.015H121.749L121.691 37.8998ZM125.147 37.8998L125.09 38.015H125.205L125.147 37.8998ZM0.907033 41.3557V41.4709H1.02223V41.3557H0.907033ZM4.36294 41.3557V41.4709H4.47814V41.3557H4.36294ZM7.81885 41.3557V41.4709H7.93405L7.81885 41.3557ZM42.3203 41.3557V41.4709H42.4355L42.3203 41.3557ZM87.1896 41.3557L87.132 41.4709H87.2472L87.1896 41.3557ZM118.235 41.3557L118.178 41.4709H118.293L118.235 41.3557ZM121.691 41.3557L121.634 41.4709H121.749L121.691 41.3557ZM125.09 41.3557V41.4709H125.205V41.3557H125.09ZM0.907033 44.8116V44.9268H1.02223V44.8116H0.907033ZM4.36294 44.8116V44.9268H4.47814V44.8116H4.36294ZM25.0408 44.8116V44.9268H25.156V44.8116H25.0408ZM28.4967 44.8116V44.9268H28.6119V44.8116H28.4967ZM42.3203 44.8116V44.9268H42.4355V44.8116H42.3203ZM87.132 44.8116V44.9268H87.2472V44.8116H87.132ZM118.235 44.8116L118.178 44.9268H118.293L118.235 44.8116ZM121.634 44.8116V44.9268H121.749V44.8116H121.634ZM125.089 44.8116V44.9268H125.205V44.8116H125.089ZM0.907033 48.2675V48.3827H1.02223V48.2675H0.907033ZM4.36294 48.2675V48.3827H4.47814V48.2675H4.36294ZM18.129 48.2675L18.2442 48.3827V48.2675H18.129ZM21.5849 48.2675V48.3827H21.7001V48.2675H21.5849ZM25.0408 48.2675V48.3827H25.156V48.2675H25.0408ZM42.3203 48.2675V48.3827L42.4355 48.2675H42.3203ZM87.132 48.2675V48.3827H87.2472V48.2675H87.132ZM118.178 48.2675L118.293 48.3827V48.2675H118.178ZM121.633 48.2675V48.3827H121.749V48.2675H121.633ZM125.089 48.2675V48.3827H125.205V48.2675H125.089ZM0.907033 51.7234V51.8386H1.02223V51.7234H0.907033ZM18.129 51.7234L18.2442 51.8386V51.7234H18.129ZM83.676 51.7234L83.7913 51.8386V51.7234H83.676ZM121.633 51.7234L121.749 51.8386V51.7234H121.633ZM125.089 51.7234V51.8386H125.205V51.7234H125.089ZM0.907033 55.1793V55.2945L1.02223 55.1793H0.907033ZM11.2748 55.1793V55.2945L11.39 55.1793H11.2748ZM125.089 55.1793L125.205 55.2945V55.1793H125.089ZM11.2748 62.0336V62.1488H11.39L11.2748 62.0336ZM28.5543 62.0336L28.4967 62.1488H28.6119L28.5543 62.0336ZM31.9527 62.0336V62.1488H32.0679L31.9527 62.0336ZM87.1896 62.0336L87.1321 62.1488H87.2473L87.1896 62.0336ZM11.2748 65.4895V65.6047H11.39L11.2748 65.4895ZM11.2748 68.9454V69.0606H11.39L11.2748 68.9454ZM107.867 68.9454V69.0606H107.983L107.867 68.9454ZM0.907102 72.4013V72.5165H1.02229V72.4013H0.907102ZM11.2748 72.4013V72.5165H11.39L11.2748 72.4013ZM73.366 72.4013V72.5165H73.4812V72.4013H73.366ZM104.412 72.4013V72.5165H104.527V72.4013H104.412ZM0.907102 75.8572V75.9724H1.02229V75.8572H0.907102ZM94.0438 75.8572V75.9724H94.159V75.8572H94.0438ZM0.907102 79.3131V79.4283H1.02229V79.3131H0.907102ZM18.129 79.3131L18.2442 79.4283V79.3131H18.129ZM0.907102 82.769V82.8842L1.02229 82.769H0.907102ZM4.36301 82.769V82.8842L4.47821 82.769H4.36301ZM125.089 82.769L125.205 82.8842V82.769H125.089ZM0.907102 89.6233V89.7385H1.02229L0.907102 89.6233ZM4.36301 89.6233V89.7385H4.47821L4.36301 89.6233ZM7.81892 89.6233V89.7385H7.93412L7.81892 89.6233ZM11.2748 89.6233V89.7385H11.39L11.2748 89.6233ZM118.235 89.6233L118.178 89.7385H118.293L118.235 89.6233ZM121.691 89.6233L121.634 89.7385H121.749L121.691 89.6233ZM125.147 89.6233L125.09 89.7385H125.205L125.147 89.6233ZM0.907102 93.0792V93.1944H1.02229V93.0792H0.907102ZM4.36301 93.0792V93.1944H4.47821L4.36301 93.0792ZM7.81892 93.0792V93.1944H7.93412L7.81892 93.0792ZM11.2748 93.0792V93.1944H11.39L11.2748 93.0792ZM18.1866 93.0792L18.1291 93.1944H18.2443L18.1866 93.0792ZM21.6426 93.0792L21.5851 93.1944H21.7003L21.6426 93.0792ZM25.041 93.0792V93.1944H25.1562V93.0792H25.041ZM28.4969 93.0792V93.1944H28.6121V93.0792H28.4969ZM31.9528 93.0792V93.1944H32.068V93.0792H31.9528ZM35.4087 93.0792V93.1944H35.5239V93.0792H35.4087ZM38.8646 93.0792V93.1944H38.9798L38.8646 93.0792ZM42.3206 93.0792V93.1944H42.4357L42.3206 93.0792ZM52.6883 93.0792L52.6307 93.1944H52.7459L52.6883 93.0792ZM56.1443 93.0792L56.0867 93.1944H56.2019L56.1443 93.0792ZM59.5426 93.0792V93.1944H59.6578V93.0792H59.5426ZM62.9986 93.0792V93.1944H63.1138V93.0792H62.9986ZM66.4545 93.0792V93.1944H66.5697V93.0792H66.4545ZM69.9104 93.0792V93.1944H70.0256V93.0792H69.9104ZM73.3663 93.0792V93.1944H73.4815L73.3663 93.0792ZM76.8222 93.0792V93.1944H76.9374L76.8222 93.0792ZM83.734 93.0792L83.6765 93.1944H83.7917L83.734 93.0792ZM87.19 93.0792L87.1324 93.1944H87.2476L87.19 93.0792ZM90.646 93.0792L90.5884 93.1944H90.7036L90.646 93.0792ZM94.0444 93.0792V93.1944H94.1596V93.0792H94.0444ZM97.5003 93.0792V93.1944H97.6155V93.0792H97.5003ZM100.956 93.0792V93.1944H101.071V93.0792H100.956ZM104.412 93.0792V93.1944H104.527L104.412 93.0792ZM107.868 93.0792V93.1944H107.983L107.868 93.0792ZM111.324 93.0792V93.1944H111.439L111.324 93.0792ZM118.236 93.0792L118.178 93.1944H118.293L118.236 93.0792ZM121.692 93.0792L121.634 93.1944H121.749L121.692 93.0792ZM125.09 93.0792V93.1944H125.205V93.0792H125.09Z" fill="url(#paint0_linear_306_17505)"/>
<defs>
<linearGradient id="paint0_linear_306_17505" x1="57.4567" y1="5.6129" x2="52.5756" y2="89.4049" gradientUnits="userSpaceOnUse">
<stop stop-color="#2A7FFF"/>
<stop offset="1" stop-color="#0044AA"/>
</linearGradient>
</defs>
</svg>
